<?xml version="1.0" encoding="UTF-8"?>
<svg width="723.5px" height="514.71px" enable-background="new 0 0 723.498 514.706" version="1.1" viewBox="0 0 723.498 514.706" xmlns="http://www.w3.org/2000/svg">
 <path d="m320.89 143.59c3.543 3.542 4.25 8.578 1.578 11.249l-25.914 25.915c-2.672 2.67-7.705 1.964-11.248-1.577l-6.768-6.769c-3.542-3.541-4.249-8.578-1.58-11.248l25.916-25.915c2.672-2.67 7.707-1.963 11.248 1.578l6.768 6.767z" fill="#E8BA82"/>
 <path d="m119.8 321.34l15.915-28.003s-4.325-31.568-0.503-53.845c3.821-22.275 2.086-50.89-0.713-61.583s2.167-25.585 10.441-25.583c8.274 0 21.211 21.743 21.211 21.743l106.54 74.35 11.324 33.479s-15.679 33.845-43.667 51.421c-19.837 12.457-36.916 13.997-44.427 24.435-7.512 10.438-26.229 52.568-26.229 52.568l-72.805-46.343 22.918-42.639z" fill="#E8BA82"/>
 <path d="m158.67 161.43s-5.479-4.647-7.916-4.799l0.713 128.13s0.45 10.803 9.903 10.803 112.98 2.701 112.98 2.701l7.653-10.352-123.33-126.48z" fill="#DBAB69"/>
 <path d="m120.49 311.41s72.819 34.642 77.237 55.88c4.417 21.238-69.991 147.42-69.991 147.42l-127.74-21.153 120.49-182.14z" fill="#0071BC"/>
 <path d="m302.99 49.977c0 0.533-0.433 0.964-0.965 0.964h-3.135c-0.532 0-0.965-0.432-0.965-0.964v-13.504c0-0.533 0.433-0.965 0.965-0.965h3.135c0.532 0 0.965 0.432 0.965 0.965v13.504z" fill="#666"/>
 <path d="m302.99 99.145c0 0.532-0.433 0.964-0.965 0.964h-3.135c-0.532 0-0.965-0.432-0.965-0.964v-40.222c0-0.533 0.433-0.964 0.965-0.964h3.135c0.532 0 0.965 0.432 0.965 0.964v40.222z" fill="#666"/>
 <path d="m301 283.56c0 5.264-4.268 9.532-9.532 9.532h-127.13c-5.264 0-9.532-4.269-9.532-9.532v-272.62c0-5.264 4.268-9.532 9.532-9.532h127.13c5.265 0 9.532 4.268 9.532 9.532v272.62z" fill="#E6E6E6" stroke="#ccc" stroke-width="2.8235"/>
 <path d="m299.95 74.838l-144.15 175.21v-69.654l123.31-177.97h11.844c5.222 0 9.455 4.234 9.455 9.455l-0.46 62.959z" fill="#F2F2F2"/>
 <path d="m245.8 11.877c0 1.678-1.36 3.039-3.039 3.039h-29.708c-1.678 0-3.038-1.36-3.038-3.039 0-1.678 1.36-3.039 3.038-3.039h29.708c1.679 0 3.039 1.361 3.039 3.039z" fill="#666"/>
 <rect x="161.8" y="19.642" width="132.21" height="247.79" fill="#4D4D4D"/>
 <path d="m246.47 282.29c0 1.865-1.512 3.376-3.376 3.376h-30.383c-1.864 0-3.376-1.511-3.376-3.376v-6.751c0-1.865 1.512-3.376 3.376-3.376h30.383c1.864 0 3.376 1.511 3.376 3.376v6.751z" fill="#E6E6E6" stroke="#B2B2B2" stroke-width="2"/>
 <path d="m315.58 247.65c3.309 3.309 4.176 7.808 1.936 10.047l-21.734 21.736c-2.24 2.239-6.738 1.372-10.047-1.937l-6.324-6.324c-3.308-3.309-4.175-7.807-1.938-10.046l21.736-21.736c2.24-2.239 6.738-1.372 10.047 1.937l6.324 6.323z" fill="#E8BA82"/>
 <path d="m322.93 213.82c3.908 3.908 4.912 9.24 2.24 11.911l-25.914 25.916c-2.672 2.67-8.004 1.666-11.912-2.241l-7.467-7.468c-3.908-3.908-4.911-9.241-2.242-11.911l25.916-25.915c2.67-2.67 8.004-1.666 11.91 2.241l7.469 7.467z" fill="#E8BA82"/>
 <path d="m318.88 181.41c3.91 3.908 4.912 9.24 2.242 11.912l-25.914 25.915c-2.672 2.67-8.004 1.667-11.912-2.24l-7.467-7.469c-3.907-3.907-4.911-9.24-2.242-11.911l25.917-25.915c2.67-2.67 8.004-1.667 11.91 2.241l7.466 7.467z" fill="#E8BA82"/>
 <path d="m531.86 310.91l-3.334-8.667s-62-35.332-57.333-68.666c0 0-1e-3 -8 11.333-12.667l-36.666-91.333s-4.816-11.826 6.393-16.917c7.291-2.409 12-1.5 16.273 5.583l26.667 59.333s18.001-15.333 34.667-2.667c0 0 10.667-15.334 32-1.333 0 0 13.999-12.667 26.666 1.333 0 0 34.666 41.999 18 97.333l11.999 34.667-73.334 31.334-13.331-27.333z" fill="#E8BA82"/>
 <path d="m482.52 220.91l12.644 23.334s-14-21-18.667-20l6.023-3.334z" fill="#D9A86B"/>
 <polygon points="495.19 177.58 505.83 199.58 500.75 173.91" fill="#D9A86B"/>
 <polygon points="529.86 174.91 540.75 196.04 532.83 171.91" fill="#D9A86B"/>
 <polygon points="561.86 173.58 572.62 189.91 564.5 171.66" fill="#D9A86B"/>
 <polygon points="536.5 337.91 623.5 301.91 723.5 473.91 593.5 511.91" fill="#0071BC"/>
</svg>
